<mxfile host="app.diagrams.net" modified="2023-06-17T12:31:16.979Z" agent="Mozilla/5.0 (Windows NT 10.0; Win64; x64) AppleWebKit/537.36 (KHTML, like Gecko) Chrome/114.0.0.0 Safari/537.36" etag="I0dL8dreAiycfN43BFp6" version="21.4.0" type="github">
  <diagram name="Page-1" id="wSQEXpgfuMb7fZrjmuHJ">
    <mxGraphModel dx="1049" dy="582" grid="1" gridSize="10" guides="1" tooltips="1" connect="1" arrows="1" fold="1" page="1" pageScale="1" pageWidth="827" pageHeight="1169" math="0" shadow="0">
      <root>
        <mxCell id="0" />
        <mxCell id="1" parent="0" />
        <mxCell id="B4WqmzTubQ9Mgs80x0da-154" value="" style="rounded=0;whiteSpace=wrap;html=1;fillColor=none;" vertex="1" parent="1">
          <mxGeometry x="183" y="70.00999999999999" width="800" height="55" as="geometry" />
        </mxCell>
        <mxCell id="B4WqmzTubQ9Mgs80x0da-155" value="&lt;b&gt;交互层&lt;/b&gt;" style="rounded=0;whiteSpace=wrap;html=1;strokeColor=none;" vertex="1" parent="1">
          <mxGeometry x="130" y="80.17" width="51" height="45" as="geometry" />
        </mxCell>
        <mxCell id="B4WqmzTubQ9Mgs80x0da-156" value="" style="group;fillColor=#d5e8d4;strokeColor=#82b366;container=0;" vertex="1" connectable="0" parent="1">
          <mxGeometry x="183" y="70" width="800" height="55.01" as="geometry" />
        </mxCell>
        <mxCell id="B4WqmzTubQ9Mgs80x0da-158" value="场景配置" style="rounded=1;whiteSpace=wrap;html=1;" vertex="1" parent="1">
          <mxGeometry x="189.00396226415094" y="80.16666666666666" width="107.9245283018868" height="36.666666666666664" as="geometry" />
        </mxCell>
        <mxCell id="B4WqmzTubQ9Mgs80x0da-159" value="评测集配置" style="rounded=1;whiteSpace=wrap;html=1;" vertex="1" parent="1">
          <mxGeometry x="303.9998113207547" y="80.16666666666666" width="107.9245283018868" height="36.666666666666664" as="geometry" />
        </mxCell>
        <mxCell id="B4WqmzTubQ9Mgs80x0da-160" value="评测任务" style="rounded=1;whiteSpace=wrap;html=1;" vertex="1" parent="1">
          <mxGeometry x="418.99566037735855" y="79.16666666666666" width="107.9245283018868" height="36.666666666666664" as="geometry" />
        </mxCell>
        <mxCell id="B4WqmzTubQ9Mgs80x0da-161" value="评测任务报告" style="rounded=1;whiteSpace=wrap;html=1;" vertex="1" parent="1">
          <mxGeometry x="534.0028301886792" y="79.16666666666666" width="107.9245283018868" height="36.666666666666664" as="geometry" />
        </mxCell>
        <mxCell id="B4WqmzTubQ9Mgs80x0da-162" value="运行部署" style="rounded=1;whiteSpace=wrap;html=1;" vertex="1" parent="1">
          <mxGeometry x="768.0028301886791" y="79.16666666666666" width="107.9245283018868" height="36.666666666666664" as="geometry" />
        </mxCell>
        <mxCell id="B4WqmzTubQ9Mgs80x0da-163" value="边缘模型训练" style="rounded=1;whiteSpace=wrap;html=1;" vertex="1" parent="1">
          <mxGeometry x="648.0028301886791" y="79.16666666666666" width="107.9245283018868" height="36.666666666666664" as="geometry" />
        </mxCell>
        <mxCell id="B4WqmzTubQ9Mgs80x0da-164" value="运维监控" style="rounded=1;whiteSpace=wrap;html=1;" vertex="1" parent="1">
          <mxGeometry x="885" y="80.16999999999999" width="90" height="36.67" as="geometry" />
        </mxCell>
        <mxCell id="B4WqmzTubQ9Mgs80x0da-185" value="测试数据" style="text;html=1;strokeColor=none;fillColor=none;align=center;verticalAlign=middle;whiteSpace=wrap;rounded=0;rotation=0;" vertex="1" parent="1">
          <mxGeometry x="665.5" y="697" width="50" height="20" as="geometry" />
        </mxCell>
        <mxCell id="B4WqmzTubQ9Mgs80x0da-195" value="" style="group" vertex="1" connectable="0" parent="1">
          <mxGeometry x="190" y="310" width="421.54" height="31" as="geometry" />
        </mxCell>
        <mxCell id="B4WqmzTubQ9Mgs80x0da-196" value="系统功能测试" style="rounded=1;whiteSpace=wrap;html=1;" vertex="1" parent="B4WqmzTubQ9Mgs80x0da-195">
          <mxGeometry y="1" width="85.30731425267419" height="30" as="geometry" />
        </mxCell>
        <mxCell id="B4WqmzTubQ9Mgs80x0da-197" style="edgeStyle=orthogonalEdgeStyle;rounded=0;orthogonalLoop=1;jettySize=auto;html=1;exitX=1;exitY=0.5;exitDx=0;exitDy=0;entryX=0;entryY=0.5;entryDx=0;entryDy=0;" edge="1" parent="B4WqmzTubQ9Mgs80x0da-195" source="B4WqmzTubQ9Mgs80x0da-198" target="B4WqmzTubQ9Mgs80x0da-200">
          <mxGeometry relative="1" as="geometry" />
        </mxCell>
        <mxCell id="B4WqmzTubQ9Mgs80x0da-198" value="APP常规功能测试" style="rounded=1;whiteSpace=wrap;html=1;" vertex="1" parent="B4WqmzTubQ9Mgs80x0da-195">
          <mxGeometry x="152.3" y="1" width="127.7" height="30" as="geometry" />
        </mxCell>
        <mxCell id="B4WqmzTubQ9Mgs80x0da-199" style="edgeStyle=orthogonalEdgeStyle;rounded=0;orthogonalLoop=1;jettySize=auto;html=1;exitX=1;exitY=0.5;exitDx=0;exitDy=0;entryX=0.012;entryY=0.496;entryDx=0;entryDy=0;entryPerimeter=0;" edge="1" parent="B4WqmzTubQ9Mgs80x0da-195" source="B4WqmzTubQ9Mgs80x0da-196" target="B4WqmzTubQ9Mgs80x0da-198">
          <mxGeometry relative="1" as="geometry" />
        </mxCell>
        <mxCell id="B4WqmzTubQ9Mgs80x0da-200" value="加载被测对象算法镜像" style="rounded=1;whiteSpace=wrap;html=1;" vertex="1" parent="B4WqmzTubQ9Mgs80x0da-195">
          <mxGeometry x="321" y="1" width="101.54" height="30" as="geometry" />
        </mxCell>
        <mxCell id="B4WqmzTubQ9Mgs80x0da-269" style="edgeStyle=orthogonalEdgeStyle;rounded=0;orthogonalLoop=1;jettySize=auto;html=1;entryX=0.5;entryY=1;entryDx=0;entryDy=0;" edge="1" parent="1" source="B4WqmzTubQ9Mgs80x0da-204" target="B4WqmzTubQ9Mgs80x0da-208">
          <mxGeometry relative="1" as="geometry" />
        </mxCell>
        <mxCell id="B4WqmzTubQ9Mgs80x0da-204" value="智能网关" style="rounded=1;whiteSpace=wrap;html=1;" vertex="1" parent="1">
          <mxGeometry x="554.5328301886791" y="499.3266666666667" width="107.9245283018868" height="36.666666666666664" as="geometry" />
        </mxCell>
        <mxCell id="B4WqmzTubQ9Mgs80x0da-208" value="物联管理平台" style="rounded=1;whiteSpace=wrap;html=1;" vertex="1" parent="1">
          <mxGeometry x="470" y="400.00000000000006" width="277" height="36.67" as="geometry" />
        </mxCell>
        <mxCell id="B4WqmzTubQ9Mgs80x0da-211" value="" style="group" vertex="1" connectable="0" parent="1">
          <mxGeometry x="210" y="643" width="420" height="30" as="geometry" />
        </mxCell>
        <mxCell id="B4WqmzTubQ9Mgs80x0da-212" value="业务功能测试" style="rounded=1;whiteSpace=wrap;html=1;" vertex="1" parent="B4WqmzTubQ9Mgs80x0da-211">
          <mxGeometry y="-3" width="82.04651162790698" height="30" as="geometry" />
        </mxCell>
        <mxCell id="B4WqmzTubQ9Mgs80x0da-213" style="edgeStyle=orthogonalEdgeStyle;rounded=0;orthogonalLoop=1;jettySize=auto;html=1;exitX=1;exitY=0.5;exitDx=0;exitDy=0;entryX=0;entryY=0.5;entryDx=0;entryDy=0;" edge="1" parent="B4WqmzTubQ9Mgs80x0da-211" source="B4WqmzTubQ9Mgs80x0da-214" target="B4WqmzTubQ9Mgs80x0da-216">
          <mxGeometry relative="1" as="geometry" />
        </mxCell>
        <mxCell id="B4WqmzTubQ9Mgs80x0da-214" value="业务层数据准确度测试" style="rounded=1;whiteSpace=wrap;html=1;" vertex="1" parent="B4WqmzTubQ9Mgs80x0da-211">
          <mxGeometry x="154.33018867924528" y="-3" width="123.02830188679246" height="30" as="geometry" />
        </mxCell>
        <mxCell id="B4WqmzTubQ9Mgs80x0da-215" style="edgeStyle=orthogonalEdgeStyle;rounded=0;orthogonalLoop=1;jettySize=auto;html=1;exitX=1;exitY=0.5;exitDx=0;exitDy=0;entryX=0;entryY=0.5;entryDx=0;entryDy=0;" edge="1" parent="B4WqmzTubQ9Mgs80x0da-211" source="B4WqmzTubQ9Mgs80x0da-212" target="B4WqmzTubQ9Mgs80x0da-214">
          <mxGeometry relative="1" as="geometry" />
        </mxCell>
        <mxCell id="B4WqmzTubQ9Mgs80x0da-216" value="业务负荷测试" style="rounded=1;whiteSpace=wrap;html=1;" vertex="1" parent="B4WqmzTubQ9Mgs80x0da-211">
          <mxGeometry x="330.0011320754717" y="-3" width="103.01886792452831" height="30" as="geometry" />
        </mxCell>
        <mxCell id="B4WqmzTubQ9Mgs80x0da-217" style="edgeStyle=orthogonalEdgeStyle;rounded=0;orthogonalLoop=1;jettySize=auto;html=1;exitX=1;exitY=0.5;exitDx=0;exitDy=0;entryX=0;entryY=0.5;entryDx=0;entryDy=0;" edge="1" parent="1" source="B4WqmzTubQ9Mgs80x0da-216" target="B4WqmzTubQ9Mgs80x0da-168">
          <mxGeometry relative="1" as="geometry" />
        </mxCell>
        <mxCell id="B4WqmzTubQ9Mgs80x0da-218" value="" style="group" vertex="1" connectable="0" parent="1">
          <mxGeometry x="210.5" y="683" width="421.53999999999996" height="30" as="geometry" />
        </mxCell>
        <mxCell id="B4WqmzTubQ9Mgs80x0da-219" value="评测数据配置" style="rounded=1;whiteSpace=wrap;html=1;" vertex="1" parent="B4WqmzTubQ9Mgs80x0da-218">
          <mxGeometry width="85.30731425267419" height="30" as="geometry" />
        </mxCell>
        <mxCell id="B4WqmzTubQ9Mgs80x0da-220" value="数据源" style="rounded=1;whiteSpace=wrap;html=1;" vertex="1" parent="B4WqmzTubQ9Mgs80x0da-218">
          <mxGeometry x="126.85" width="67.69" height="30" as="geometry" />
        </mxCell>
        <mxCell id="B4WqmzTubQ9Mgs80x0da-221" style="edgeStyle=orthogonalEdgeStyle;rounded=0;orthogonalLoop=1;jettySize=auto;html=1;exitX=1;exitY=0.5;exitDx=0;exitDy=0;entryX=0;entryY=0.5;entryDx=0;entryDy=0;" edge="1" parent="B4WqmzTubQ9Mgs80x0da-218" source="B4WqmzTubQ9Mgs80x0da-219" target="B4WqmzTubQ9Mgs80x0da-220">
          <mxGeometry relative="1" as="geometry" />
        </mxCell>
        <mxCell id="B4WqmzTubQ9Mgs80x0da-222" value="格式转化" style="rounded=1;whiteSpace=wrap;html=1;" vertex="1" parent="B4WqmzTubQ9Mgs80x0da-218">
          <mxGeometry x="228.46" width="69.31" height="30" as="geometry" />
        </mxCell>
        <mxCell id="B4WqmzTubQ9Mgs80x0da-223" style="edgeStyle=orthogonalEdgeStyle;rounded=0;orthogonalLoop=1;jettySize=auto;html=1;exitX=1;exitY=0.5;exitDx=0;exitDy=0;entryX=0;entryY=0.5;entryDx=0;entryDy=0;" edge="1" parent="B4WqmzTubQ9Mgs80x0da-218" source="B4WqmzTubQ9Mgs80x0da-220" target="B4WqmzTubQ9Mgs80x0da-222">
          <mxGeometry relative="1" as="geometry" />
        </mxCell>
        <mxCell id="B4WqmzTubQ9Mgs80x0da-224" value="评测数据集生成" style="rounded=1;whiteSpace=wrap;html=1;" vertex="1" parent="B4WqmzTubQ9Mgs80x0da-218">
          <mxGeometry x="330.53999999999996" width="100" height="30" as="geometry" />
        </mxCell>
        <mxCell id="B4WqmzTubQ9Mgs80x0da-225" style="edgeStyle=orthogonalEdgeStyle;rounded=0;orthogonalLoop=1;jettySize=auto;html=1;exitX=1;exitY=0.5;exitDx=0;exitDy=0;" edge="1" parent="B4WqmzTubQ9Mgs80x0da-218" source="B4WqmzTubQ9Mgs80x0da-222" target="B4WqmzTubQ9Mgs80x0da-224">
          <mxGeometry relative="1" as="geometry" />
        </mxCell>
        <mxCell id="B4WqmzTubQ9Mgs80x0da-226" style="edgeStyle=orthogonalEdgeStyle;rounded=0;orthogonalLoop=1;jettySize=auto;html=1;exitX=1;exitY=0.5;exitDx=0;exitDy=0;entryX=0.5;entryY=1;entryDx=0;entryDy=0;" edge="1" parent="1" source="B4WqmzTubQ9Mgs80x0da-224" target="B4WqmzTubQ9Mgs80x0da-168">
          <mxGeometry relative="1" as="geometry" />
        </mxCell>
        <mxCell id="B4WqmzTubQ9Mgs80x0da-168" value="实体设备" style="rounded=1;whiteSpace=wrap;html=1;" vertex="1" parent="1">
          <mxGeometry x="688" y="640" width="100" height="30" as="geometry" />
        </mxCell>
        <mxCell id="B4WqmzTubQ9Mgs80x0da-237" value="" style="group" vertex="1" connectable="0" parent="1">
          <mxGeometry x="670" y="132" width="130" height="180" as="geometry" />
        </mxCell>
        <mxCell id="B4WqmzTubQ9Mgs80x0da-166" value="" style="rounded=0;whiteSpace=wrap;html=1;fillColor=#d5e8d4;strokeColor=#82b366;" vertex="1" parent="B4WqmzTubQ9Mgs80x0da-237">
          <mxGeometry width="130" height="180" as="geometry" />
        </mxCell>
        <mxCell id="B4WqmzTubQ9Mgs80x0da-169" value="海思推理引擎服务" style="rounded=1;whiteSpace=wrap;html=1;" vertex="1" parent="B4WqmzTubQ9Mgs80x0da-237">
          <mxGeometry x="16.5" y="58.91578947368421" width="100.00000000000001" height="26.684210526315784" as="geometry" />
        </mxCell>
        <mxCell id="B4WqmzTubQ9Mgs80x0da-170" value="ARM推理引擎服务" style="rounded=1;whiteSpace=wrap;html=1;" vertex="1" parent="B4WqmzTubQ9Mgs80x0da-237">
          <mxGeometry x="16.5" y="27.89473684210526" width="100.00000000000001" height="26.684210526315784" as="geometry" />
        </mxCell>
        <mxCell id="B4WqmzTubQ9Mgs80x0da-171" value="Rockchip推理引擎服务" style="rounded=1;whiteSpace=wrap;html=1;" vertex="1" parent="B4WqmzTubQ9Mgs80x0da-237">
          <mxGeometry x="16.5" y="88.93684210526314" width="100.00000000000001" height="26.684210526315784" as="geometry" />
        </mxCell>
        <mxCell id="B4WqmzTubQ9Mgs80x0da-172" value="移动端推理引擎服务" style="rounded=1;whiteSpace=wrap;html=1;" vertex="1" parent="B4WqmzTubQ9Mgs80x0da-237">
          <mxGeometry x="16.5" y="120.17894736842102" width="100.00000000000001" height="26.684210526315784" as="geometry" />
        </mxCell>
        <mxCell id="B4WqmzTubQ9Mgs80x0da-173" value="........" style="rounded=1;whiteSpace=wrap;html=1;" vertex="1" parent="B4WqmzTubQ9Mgs80x0da-237">
          <mxGeometry x="15.5" y="149.19999999999996" width="100.00000000000001" height="26.684210526315784" as="geometry" />
        </mxCell>
        <mxCell id="B4WqmzTubQ9Mgs80x0da-277" value="&lt;b&gt;运行环境&lt;/b&gt;" style="text;html=1;strokeColor=none;fillColor=none;align=center;verticalAlign=middle;whiteSpace=wrap;rounded=0;container=0;movable=1;resizable=1;rotatable=1;deletable=1;editable=1;locked=0;connectable=1;" vertex="1" parent="B4WqmzTubQ9Mgs80x0da-237">
          <mxGeometry x="30.62" y="-2.11" width="71.75" height="30" as="geometry" />
        </mxCell>
        <mxCell id="B4WqmzTubQ9Mgs80x0da-248" value="" style="group;fillColor=#d5e8d4;strokeColor=#82b366;fillStyle=auto;movable=1;resizable=1;rotatable=1;deletable=1;editable=1;locked=0;connectable=1;" vertex="1" connectable="0" parent="1">
          <mxGeometry x="840" y="130" width="140" height="180" as="geometry" />
        </mxCell>
        <mxCell id="B4WqmzTubQ9Mgs80x0da-247" value="" style="group;fillColor=#e1d5e7;strokeColor=#9673a6;container=0;movable=1;resizable=1;rotatable=1;deletable=1;editable=1;locked=0;connectable=1;" vertex="1" connectable="0" parent="B4WqmzTubQ9Mgs80x0da-248">
          <mxGeometry width="140" height="180" as="geometry" />
        </mxCell>
        <mxCell id="B4WqmzTubQ9Mgs80x0da-177" value="&lt;b&gt;评测算法&lt;/b&gt;" style="text;html=1;strokeColor=none;fillColor=none;align=center;verticalAlign=middle;whiteSpace=wrap;rounded=0;container=0;movable=1;resizable=1;rotatable=1;deletable=1;editable=1;locked=0;connectable=1;" vertex="1" parent="B4WqmzTubQ9Mgs80x0da-248">
          <mxGeometry x="31.75" y="1.0588235294117647" width="76.5" height="31.764705882352942" as="geometry" />
        </mxCell>
        <mxCell id="B4WqmzTubQ9Mgs80x0da-178" value="准确率" style="rounded=1;whiteSpace=wrap;html=1;container=0;movable=1;resizable=1;rotatable=1;deletable=1;editable=1;locked=0;connectable=1;" vertex="1" parent="B4WqmzTubQ9Mgs80x0da-248">
          <mxGeometry x="3.4700000000000273" y="32.8235294117647" width="63" height="30.705882352941178" as="geometry" />
        </mxCell>
        <mxCell id="B4WqmzTubQ9Mgs80x0da-181" value="........" style="rounded=1;whiteSpace=wrap;html=1;container=0;movable=1;resizable=1;rotatable=1;deletable=1;editable=1;locked=0;connectable=1;" vertex="1" parent="B4WqmzTubQ9Mgs80x0da-248">
          <mxGeometry x="5" y="144.45529411764707" width="129" height="22.235294117647058" as="geometry" />
        </mxCell>
        <mxCell id="B4WqmzTubQ9Mgs80x0da-240" value="召回率" style="rounded=1;whiteSpace=wrap;html=1;container=0;movable=1;resizable=1;rotatable=1;deletable=1;editable=1;locked=0;connectable=1;" vertex="1" parent="B4WqmzTubQ9Mgs80x0da-248">
          <mxGeometry x="70" y="32.8235294117647" width="63" height="30.705882352941178" as="geometry" />
        </mxCell>
        <mxCell id="B4WqmzTubQ9Mgs80x0da-241" value="误报率" style="rounded=1;whiteSpace=wrap;html=1;container=0;movable=1;resizable=1;rotatable=1;deletable=1;editable=1;locked=0;connectable=1;" vertex="1" parent="B4WqmzTubQ9Mgs80x0da-248">
          <mxGeometry x="3.4700000000000273" y="74.11764705882354" width="63" height="30.705882352941178" as="geometry" />
        </mxCell>
        <mxCell id="B4WqmzTubQ9Mgs80x0da-242" value="启动时间" style="rounded=1;whiteSpace=wrap;html=1;container=0;movable=1;resizable=1;rotatable=1;deletable=1;editable=1;locked=0;connectable=1;" vertex="1" parent="B4WqmzTubQ9Mgs80x0da-248">
          <mxGeometry x="71" y="73.05882352941177" width="63" height="30.705882352941178" as="geometry" />
        </mxCell>
        <mxCell id="B4WqmzTubQ9Mgs80x0da-243" value="推理速度" style="rounded=1;whiteSpace=wrap;html=1;container=0;movable=1;resizable=1;rotatable=1;deletable=1;editable=1;locked=0;connectable=1;" vertex="1" parent="B4WqmzTubQ9Mgs80x0da-248">
          <mxGeometry x="4" y="111.63176470588236" width="63" height="30.705882352941178" as="geometry" />
        </mxCell>
        <mxCell id="B4WqmzTubQ9Mgs80x0da-244" value="BadCase" style="rounded=1;whiteSpace=wrap;html=1;container=0;movable=1;resizable=1;rotatable=1;deletable=1;editable=1;locked=0;connectable=1;" vertex="1" parent="B4WqmzTubQ9Mgs80x0da-248">
          <mxGeometry x="70" y="110.5729411764706" width="63" height="30.705882352941178" as="geometry" />
        </mxCell>
        <mxCell id="B4WqmzTubQ9Mgs80x0da-262" value="" style="endArrow=classic;html=1;rounded=0;entryX=0;entryY=0.445;entryDx=0;entryDy=0;strokeWidth=3;entryPerimeter=0;exitX=0.998;exitY=0.429;exitDx=0;exitDy=0;exitPerimeter=0;" edge="1" parent="1" source="B4WqmzTubQ9Mgs80x0da-166" target="B4WqmzTubQ9Mgs80x0da-247">
          <mxGeometry width="50" height="50" relative="1" as="geometry">
            <mxPoint x="794" y="215.35999999999999" as="sourcePoint" />
            <mxPoint x="827" y="215.65" as="targetPoint" />
          </mxGeometry>
        </mxCell>
        <mxCell id="B4WqmzTubQ9Mgs80x0da-261" value="" style="endArrow=classic;html=1;rounded=0;entryX=0;entryY=0.5;entryDx=0;entryDy=0;strokeWidth=3;" edge="1" parent="1" target="B4WqmzTubQ9Mgs80x0da-166">
          <mxGeometry width="50" height="50" relative="1" as="geometry">
            <mxPoint x="630" y="222" as="sourcePoint" />
            <mxPoint x="670" y="215.70999999999998" as="targetPoint" />
          </mxGeometry>
        </mxCell>
        <mxCell id="B4WqmzTubQ9Mgs80x0da-263" value="" style="group" vertex="1" connectable="0" parent="1">
          <mxGeometry x="184" y="131" width="440" height="170" as="geometry" />
        </mxCell>
        <mxCell id="B4WqmzTubQ9Mgs80x0da-152" value="" style="rounded=0;whiteSpace=wrap;html=1;fillColor=#dae8fc;strokeColor=#6c8ebf;" vertex="1" parent="B4WqmzTubQ9Mgs80x0da-263">
          <mxGeometry width="440" height="170" as="geometry" />
        </mxCell>
        <mxCell id="B4WqmzTubQ9Mgs80x0da-186" value="" style="group;fillColor=none;strokeColor=none;" vertex="1" connectable="0" parent="B4WqmzTubQ9Mgs80x0da-263">
          <mxGeometry x="4" y="4.29" width="320.47" height="160" as="geometry" />
        </mxCell>
        <mxCell id="B4WqmzTubQ9Mgs80x0da-187" value="" style="rounded=0;whiteSpace=wrap;html=1;dashed=1;dashPattern=12 12;fillColor=none;fillStyle=auto;strokeColor=#CC0000;gradientColor=#97d077;" vertex="1" parent="B4WqmzTubQ9Mgs80x0da-186">
          <mxGeometry x="-0.9510722580645163" y="4.29" width="321.4210722580646" height="155.71" as="geometry" />
        </mxCell>
        <mxCell id="B4WqmzTubQ9Mgs80x0da-188" value="场景数据导入" style="rounded=1;whiteSpace=wrap;html=1;" vertex="1" parent="B4WqmzTubQ9Mgs80x0da-186">
          <mxGeometry y="7.619047619047619" width="94.67492023460413" height="22.857142857142858" as="geometry" />
        </mxCell>
        <mxCell id="B4WqmzTubQ9Mgs80x0da-189" value="边缘模型训练" style="rounded=1;whiteSpace=wrap;html=1;" vertex="1" parent="B4WqmzTubQ9Mgs80x0da-186">
          <mxGeometry x="44.44396171260999" y="32.76190476190476" width="94.67492023460413" height="22.857142857142858" as="geometry" />
        </mxCell>
        <mxCell id="B4WqmzTubQ9Mgs80x0da-272" style="edgeStyle=orthogonalEdgeStyle;rounded=0;orthogonalLoop=1;jettySize=auto;html=1;exitX=0;exitY=0.5;exitDx=0;exitDy=0;entryX=0.25;entryY=1;entryDx=0;entryDy=0;" edge="1" parent="B4WqmzTubQ9Mgs80x0da-186" source="B4WqmzTubQ9Mgs80x0da-190" target="B4WqmzTubQ9Mgs80x0da-189">
          <mxGeometry relative="1" as="geometry" />
        </mxCell>
        <mxCell id="B4WqmzTubQ9Mgs80x0da-190" value="边缘模型调优" style="rounded=1;whiteSpace=wrap;html=1;" vertex="1" parent="B4WqmzTubQ9Mgs80x0da-186">
          <mxGeometry x="90.83467262756602" y="57.90476190476189" width="94.67492023460413" height="22.857142857142858" as="geometry" />
        </mxCell>
        <mxCell id="B4WqmzTubQ9Mgs80x0da-191" value="边缘模型裁剪" style="rounded=1;whiteSpace=wrap;html=1;" vertex="1" parent="B4WqmzTubQ9Mgs80x0da-186">
          <mxGeometry x="144.14747712609977" y="82.28571428571428" width="94.67492023460413" height="22.857142857142858" as="geometry" />
        </mxCell>
        <mxCell id="B4WqmzTubQ9Mgs80x0da-192" value="模型算法封装" style="rounded=1;whiteSpace=wrap;html=1;" vertex="1" parent="B4WqmzTubQ9Mgs80x0da-186">
          <mxGeometry x="223.63843883870976" y="133.42857142857142" width="94.67492023460413" height="22.857142857142858" as="geometry" />
        </mxCell>
        <mxCell id="B4WqmzTubQ9Mgs80x0da-193" value="&lt;font color=&quot;#cc0000&quot;&gt;边缘算法二次开发组件&lt;/font&gt;" style="text;html=1;strokeColor=none;fillColor=none;align=center;verticalAlign=middle;whiteSpace=wrap;rounded=0;" vertex="1" parent="B4WqmzTubQ9Mgs80x0da-186">
          <mxGeometry y="143.61" width="135.34171741935486" height="16.39" as="geometry" />
        </mxCell>
        <mxCell id="B4WqmzTubQ9Mgs80x0da-245" value="&lt;b&gt;转换部署模型&lt;/b&gt;" style="rounded=1;whiteSpace=wrap;html=1;" vertex="1" parent="B4WqmzTubQ9Mgs80x0da-186">
          <mxGeometry x="183.5259325806452" y="107.15" width="106.96461580645163" height="22.86" as="geometry" />
        </mxCell>
        <mxCell id="B4WqmzTubQ9Mgs80x0da-246" value="" style="endArrow=classic;html=1;rounded=0;exitX=1;exitY=0.5;exitDx=0;exitDy=0;" edge="1" parent="B4WqmzTubQ9Mgs80x0da-186" source="B4WqmzTubQ9Mgs80x0da-187">
          <mxGeometry width="50" height="50" relative="1" as="geometry">
            <mxPoint x="274.49994120234606" y="81.59428571428572" as="sourcePoint" />
            <mxPoint x="346.8641347507332" y="81.59428571428572" as="targetPoint" />
          </mxGeometry>
        </mxCell>
        <mxCell id="B4WqmzTubQ9Mgs80x0da-273" value="迭代" style="text;html=1;strokeColor=none;fillColor=none;align=center;verticalAlign=middle;whiteSpace=wrap;rounded=0;" vertex="1" parent="B4WqmzTubQ9Mgs80x0da-186">
          <mxGeometry x="59.67" y="68.58" width="35" height="13.71" as="geometry" />
        </mxCell>
        <mxCell id="B4WqmzTubQ9Mgs80x0da-194" value="构建&lt;b&gt;指定&lt;/b&gt;AI算法运行镜像" style="rounded=1;whiteSpace=wrap;html=1;" vertex="1" parent="B4WqmzTubQ9Mgs80x0da-263">
          <mxGeometry x="346" y="72.13999999999999" width="94" height="25.71" as="geometry" />
        </mxCell>
        <mxCell id="B4WqmzTubQ9Mgs80x0da-266" value="算法评测" style="text;html=1;strokeColor=none;fillColor=none;align=center;verticalAlign=middle;whiteSpace=wrap;rounded=0;" vertex="1" parent="1">
          <mxGeometry x="800" y="180" width="30" height="29" as="geometry" />
        </mxCell>
        <mxCell id="B4WqmzTubQ9Mgs80x0da-267" value="算法容器推理" style="text;html=1;strokeColor=none;fillColor=none;align=center;verticalAlign=middle;whiteSpace=wrap;rounded=0;" vertex="1" parent="1">
          <mxGeometry x="630" y="180" width="30" height="29" as="geometry" />
        </mxCell>
        <mxCell id="B4WqmzTubQ9Mgs80x0da-270" value="&lt;b&gt;执行层&lt;/b&gt;" style="rounded=0;whiteSpace=wrap;html=1;strokeColor=none;" vertex="1" parent="1">
          <mxGeometry x="121" y="230" width="53" height="45" as="geometry" />
        </mxCell>
        <mxCell id="B4WqmzTubQ9Mgs80x0da-275" value="训练服务器" style="rounded=0;whiteSpace=wrap;html=1;fillColor=#eeeeee;strokeColor=#36393d;" vertex="1" parent="1">
          <mxGeometry x="135.5" y="154.48" width="35" height="50" as="geometry" />
        </mxCell>
        <mxCell id="B4WqmzTubQ9Mgs80x0da-276" style="edgeStyle=orthogonalEdgeStyle;rounded=0;orthogonalLoop=1;jettySize=auto;html=1;exitX=0;exitY=0.5;exitDx=0;exitDy=0;startArrow=classic;startFill=1;" edge="1" parent="1" source="B4WqmzTubQ9Mgs80x0da-189" target="B4WqmzTubQ9Mgs80x0da-275">
          <mxGeometry relative="1" as="geometry" />
        </mxCell>
        <mxCell id="B4WqmzTubQ9Mgs80x0da-278" value="" style="group" vertex="1" connectable="0" parent="1">
          <mxGeometry x="180" y="400" width="248" height="139.99333333333334" as="geometry" />
        </mxCell>
        <mxCell id="B4WqmzTubQ9Mgs80x0da-205" value="监拍相机" style="rounded=1;whiteSpace=wrap;html=1;" vertex="1" parent="B4WqmzTubQ9Mgs80x0da-278">
          <mxGeometry x="70.0328301886791" y="103.32666666666671" width="107.9245283018868" height="36.666666666666664" as="geometry" />
        </mxCell>
        <mxCell id="B4WqmzTubQ9Mgs80x0da-209" value="统一视频平台" style="rounded=1;whiteSpace=wrap;html=1;" vertex="1" parent="B4WqmzTubQ9Mgs80x0da-278">
          <mxGeometry width="248" height="36.67" as="geometry" />
        </mxCell>
        <mxCell id="B4WqmzTubQ9Mgs80x0da-268" style="edgeStyle=orthogonalEdgeStyle;rounded=0;orthogonalLoop=1;jettySize=auto;html=1;entryX=0.5;entryY=1;entryDx=0;entryDy=0;" edge="1" parent="B4WqmzTubQ9Mgs80x0da-278" source="B4WqmzTubQ9Mgs80x0da-205" target="B4WqmzTubQ9Mgs80x0da-209">
          <mxGeometry relative="1" as="geometry" />
        </mxCell>
      </root>
    </mxGraphModel>
  </diagram>
</mxfile>
